<svg xmlns="http://www.w3.org/2000/svg" width="15.934" height="21.974" viewBox="0 0 15.934 21.974">
  <g id="Basura_ícono" data-name="Basura ícono" transform="translate(0 0)">
    <g id="Grupo_3" data-name="Grupo 3" transform="translate(1.787 7.061)">
      <g id="Grupo_2" data-name="Grupo 2" transform="translate(0 0)">
        <path id="Trazado_2" data-name="Trazado 2" d="M788.025-324H779.34a1.986,1.986,0,0,1-1.838-2.1V-337.88a.971.971,0,0,1,.9-1.029.97.97,0,0,1,.9,1.029V-326.1a.043.043,0,0,0,.04.045h8.685a.043.043,0,0,0,.04-.045V-337.88a.97.97,0,0,1,.9-1.029.97.97,0,0,1,.9,1.029V-326.1A1.986,1.986,0,0,1,788.025-324Z" transform="translate(-777.502 338.909)" fill="#fff"/>
      </g>
    </g>
    <g id="Grupo_5" data-name="Grupo 5" transform="translate(5.429 9.469)">
      <g id="Grupo_4" data-name="Grupo 4" transform="translate(0 0)">
        <path id="Trazado_3" data-name="Trazado 3" d="M798.656-318.948a.971.971,0,0,1-.9-1.029v-6.194a.97.97,0,0,1,.9-1.029.97.97,0,0,1,.9,1.029v6.194A.971.971,0,0,1,798.656-318.948Z" transform="translate(-797.757 327.199)" fill="#fff"/>
      </g>
    </g>
    <g id="Grupo_7" data-name="Grupo 7" transform="translate(8.707 9.469)">
      <g id="Grupo_6" data-name="Grupo 6" transform="translate(0 0)">
        <path id="Trazado_4" data-name="Trazado 4" d="M816.882-318.948a.971.971,0,0,1-.9-1.029v-6.194a.97.97,0,0,1,.9-1.029.97.97,0,0,1,.9,1.029v6.194A.97.97,0,0,1,816.882-318.948Z" transform="translate(-815.983 327.199)" fill="#fff"/>
      </g>
    </g>
    <g id="Grupo_11" data-name="Grupo 11" transform="translate(0)">
      <g id="Grupo_10" data-name="Grupo 10">
        <g id="Grupo_8" data-name="Grupo 8" transform="translate(0 3.104)">
          <path id="Trazado_5" data-name="Trazado 5" d="M782.6-356.089H768.467a.97.97,0,0,1-.9-1.028.971.971,0,0,1,.9-1.028H782.6a.97.97,0,0,1,.9,1.028A.97.97,0,0,1,782.6-356.089Z" transform="translate(-767.568 358.146)" fill="#fff"/>
        </g>
        <g id="Grupo_9" data-name="Grupo 9" transform="translate(5.291)">
          <path id="Trazado_6" data-name="Trazado 6" d="M801.441-368.073a.97.97,0,0,1-.9-1.029v-1.691a.7.7,0,0,0-.1-.384h-1.563a.7.7,0,0,0-.1.384v1.691a.97.97,0,0,1-.9,1.029.97.97,0,0,1-.9-1.029v-1.691c0-1.369.807-2.441,1.838-2.441H800.5c1.031,0,1.838,1.072,1.838,2.441v1.691A.97.97,0,0,1,801.441-368.073Z" transform="translate(-796.988 373.234)" fill="#fff"/>
        </g>
      </g>
    </g>
  </g>
</svg>
