<svg xmlns="http://www.w3.org/2000/svg" width="17.321" height="22.056" viewBox="0 0 17.321 22.056">
  <g id="Nueva_nota_ícono" data-name="Nueva nota ícono" transform="translate(0 0)">
    <g id="Grupo_13" data-name="Grupo 13" transform="translate(0 3.185)">
      <g id="Grupo_12" data-name="Grupo 12">
        <path id="Trazado_7" data-name="Trazado 7" d="M917.005-339.275h-9.668a2.735,2.735,0,0,1-2.433-2.954v-12.965a2.733,2.733,0,0,1,2.433-2.952H912.4a.97.97,0,0,1,.9,1.028.97.97,0,0,1-.9,1.028h-5.063c-.344,0-.635.41-.635.895v12.965c0,.486.291.9.635.9h9.668c.351,0,.636-.4.636-.9v-7.665a.97.97,0,0,1,.9-1.029.97.97,0,0,1,.9,1.029v7.665A2.735,2.735,0,0,1,917.005-339.275Z" transform="translate(-904.904 358.146)" fill="#fff"/>
      </g>
    </g>
    <g id="Grupo_15" data-name="Grupo 15" transform="translate(3.633 8.994)">
      <g id="Grupo_14" data-name="Grupo 14">
        <path id="Trazado_8" data-name="Trazado 8" d="M931.476-327.852H926a.97.97,0,0,1-.9-1.028.97.97,0,0,1,.9-1.029h5.472a.97.97,0,0,1,.9,1.029A.97.97,0,0,1,931.476-327.852Z" transform="translate(-925.105 329.909)" fill="#fff"/>
      </g>
    </g>
    <g id="Grupo_17" data-name="Grupo 17" transform="translate(3.633 14.584)">
      <g id="Grupo_16" data-name="Grupo 16">
        <path id="Trazado_9" data-name="Trazado 9" d="M931.476-300.675H926a.97.97,0,0,1-.9-1.028.97.97,0,0,1,.9-1.029h5.472a.97.97,0,0,1,.9,1.029A.97.97,0,0,1,931.476-300.675Z" transform="translate(-925.105 302.732)" fill="#fff"/>
      </g>
    </g>
    <g id="Grupo_21" data-name="Grupo 21" transform="translate(9.953 0)">
      <g id="Grupo_20" data-name="Grupo 20">
        <g id="Grupo_18" data-name="Grupo 18" transform="translate(2.785)">
          <path id="Trazado_10" data-name="Trazado 10" d="M976.631-365.2a.97.97,0,0,1-.9-1.028V-372.6a.97.97,0,0,1,.9-1.028.97.97,0,0,1,.9,1.028v6.371A.97.97,0,0,1,976.631-365.2Z" transform="translate(-975.732 373.631)" fill="#fff"/>
        </g>
        <g id="Grupo_19" data-name="Grupo 19" transform="translate(0 3.185)">
          <path id="Trazado_11" data-name="Trazado 11" d="M966.716-356.089h-5.57a.97.97,0,0,1-.9-1.028.97.97,0,0,1,.9-1.028h5.57a.97.97,0,0,1,.9,1.028A.97.97,0,0,1,966.716-356.089Z" transform="translate(-960.247 358.146)" fill="#fff"/>
        </g>
      </g>
    </g>
  </g>
</svg>
