<svg xmlns="http://www.w3.org/2000/svg" width="17.517" height="30.323" viewBox="0 0 17.517 30.323">
  <g id="Tab_icono" data-name="Tab icono" transform="translate(0)">
    <g id="Grupo_27" data-name="Grupo 27" transform="translate(0 0)">
      <g id="Grupo_26" data-name="Grupo 26">
        <g id="Grupo_22" data-name="Grupo 22" transform="translate(14.563)">
          <path id="Trazado_12" data-name="Trazado 12" d="M1080.184-334.659a1.477,1.477,0,0,1-1.477-1.477v-27.37a1.476,1.476,0,0,1,1.477-1.477,1.477,1.477,0,0,1,1.477,1.477v27.37A1.477,1.477,0,0,1,1080.184-334.659Z" transform="translate(-1078.707 364.982)" fill="#fff"/>
        </g>
        <g id="Grupo_23" data-name="Grupo 23" transform="translate(0.074 13.685)">
          <path id="Trazado_13" data-name="Trazado 13" d="M1045.613-315.692h-14.489a1.477,1.477,0,0,1-1.477-1.477,1.477,1.477,0,0,1,1.477-1.477h14.489a1.477,1.477,0,0,1,1.477,1.477A1.476,1.476,0,0,1,1045.613-315.692Z" transform="translate(-1029.648 318.645)" fill="#fff"/>
        </g>
        <g id="Grupo_24" data-name="Grupo 24" transform="translate(8.743 15.162)">
          <path id="Trazado_14" data-name="Trazado 14" d="M1059-313.644" transform="translate(-1059.001 313.644)" fill="#fff"/>
        </g>
        <g id="Grupo_25" data-name="Grupo 25" transform="translate(0 9.665)">
          <path id="Trazado_15" data-name="Trazado 15" d="M1034.949-321.262a1.471,1.471,0,0,1-1.029-.418l-4.077-3.962a1.477,1.477,0,0,1-.447-1.048,1.477,1.477,0,0,1,.432-1.055l4.077-4.077a1.477,1.477,0,0,1,2.088,0,1.476,1.476,0,0,1,0,2.089l-3.017,3.017,3,2.918a1.477,1.477,0,0,1,.029,2.088A1.472,1.472,0,0,1,1034.949-321.262Z" transform="translate(-1029.396 332.255)" fill="#fff"/>
        </g>
      </g>
    </g>
  </g>
</svg>
