<svg xmlns="http://www.w3.org/2000/svg" viewBox="0 0 22.31 22.31"><defs><style>.cls-1{fill:#fff;}</style></defs><g id="Capa_2" data-name="Capa 2"><g id="Capa_1-2" data-name="Capa 1"><g id="Grupo_22" data-name="Grupo 22"><path id="Trazado_12" data-name="Trazado 12" class="cls-1" d="M.43,21.87a1.47,1.47,0,0,0,2.09,0h0L21.87,2.52a1.48,1.48,0,0,0,0-2.09h0a1.48,1.48,0,0,0-2.08,0h0L.43,19.79a1.48,1.48,0,0,0,0,2.08Z"/></g><g id="Grupo_22-2" data-name="Grupo 22"><path id="Trazado_12-2" data-name="Trazado 12" class="cls-1" d="M.43.43a1.49,1.49,0,0,1,2.09,0h0L21.87,19.79a1.47,1.47,0,0,1,0,2.08h0a1.46,1.46,0,0,1-2.08,0h0L.43,2.52A1.49,1.49,0,0,1,.43.43Z"/></g></g></g></svg>