<svg xmlns="http://www.w3.org/2000/svg" width="23.777" height="30.685" viewBox="0 0 23.777 30.685">
  <path id="Note_it_ícono" data-name="Note it ícono" d="M479.355,34.3h-3.984a2.555,2.555,0,0,0,.036-.458,3.416,3.416,0,1,0-6.831,0,2.561,2.561,0,0,0,.036.458h-3.979a4.526,4.526,0,0,0-4.527,4.527V56.586a4.526,4.526,0,0,0,4.527,4.527h14.723a4.528,4.528,0,0,0,4.527-4.527V38.831A4.528,4.528,0,0,0,479.355,34.3Zm-7.361-2.353a1.9,1.9,0,0,1,1.9,1.9,1.707,1.707,0,0,1-.058.458,1.893,1.893,0,0,1-3.674,0,1.707,1.707,0,0,1-.058-.458A1.9,1.9,0,0,1,471.994,31.951Zm5.152,23.67H464.462V52.777h12.684Zm2.457-6.292h-15.14V46.48H479.6Zm0-6.3h-15.14V40.188H479.6Z" transform="translate(-460.105 -30.428)" fill="#f57c1b"/>
</svg>
